{
	"asset":{
		"generator":"Khronos glTF Blender I/O v4.3.47",
		"version":"2.0"
	},
	"extensionsUsed":[
		"KHR_texture_transform"
	],
	"extensionsRequired":[
		"KHR_texture_transform"
	],
	"scene":0,
	"scenes":[
		{
			"name":"Scene",
			"nodes":[
				0
			]
		}
	],
	"nodes":[
		{
			"mesh":0,
			"name":"frc12_4900_000_cfd",
			"rotation":[
				0.7071068286895752,
				0,
				0,
				0.7071068286895752
			],
			"scale":[
				0.10000000149011612,
				0.10000000149011612,
				0.10000000149011612
			]
		}
	],
	"materials":[
		{
			"doubleSided":true,
			"name":"Carbon",
			"normalTexture":{
				"extensions":{
					"KHR_texture_transform":{
						"offset":[
							0,
							-14
						],
						"scale":[
							15,
							15
						]
					}
				},
				"index":0
			},
			"pbrMetallicRoughness":{
				"baseColorTexture":{
					"extensions":{
						"KHR_texture_transform":{
							"offset":[
								0,
								-14
							],
							"scale":[
								15,
								15
							]
						}
					},
					"index":1
				},
				"metallicRoughnessTexture":{
					"extensions":{
						"KHR_texture_transform":{
							"offset":[
								0,
								-14
							],
							"scale":[
								15,
								15
							]
						}
					},
					"index":2
				}
			}
		},
		{
			"doubleSided":true,
			"name":"Rubber",
			"normalTexture":{
				"extensions":{
					"KHR_texture_transform":{
						"offset":[
							0,
							-9
						],
						"scale":[
							10,
							10
						]
					}
				},
				"index":3
			},
			"pbrMetallicRoughness":{
				"baseColorTexture":{
					"extensions":{
						"KHR_texture_transform":{
							"offset":[
								0,
								-9
							],
							"scale":[
								10,
								10
							]
						}
					},
					"index":4
				},
				"metallicRoughnessTexture":{
					"extensions":{
						"KHR_texture_transform":{
							"offset":[
								0,
								-9
							],
							"scale":[
								10,
								10
							]
						}
					},
					"index":5
				}
			}
		},
		{
			"doubleSided":true,
			"name":"Blue_paint",
			"pbrMetallicRoughness":{
				"baseColorFactor":[
					0,
					0.40724068880081177,
					0.36130693554878235,
					1
				],
				"metallicFactor":0.8409091234207153,
				"roughnessFactor":0.48636364936828613
			}
		},
		{
			"doubleSided":true,
			"name":"Full_black",
			"pbrMetallicRoughness":{
				"baseColorFactor":[
					0,
					0,
					0,
					1
				],
				"metallicFactor":0
			}
		},
		{
			"doubleSided":true,
			"name":"Bright_metal",
			"pbrMetallicRoughness":{
				"roughnessFactor":0.40909090638160706
			}
		},
		{
			"doubleSided":true,
			"name":"White_paint",
			"pbrMetallicRoughness":{
				"baseColorFactor":[
					0.8600813150405884,
					0.8600813150405884,
					0.8600813150405884,
					1
				],
				"metallicFactor":0.8399999737739563,
				"roughnessFactor":0.46000000834465027
			}
		},
		{
			"doubleSided":true,
			"name":"Black_paint",
			"pbrMetallicRoughness":{
				"baseColorFactor":[
					0.01063220389187336,
					0.01063220389187336,
					0.01063220389187336,
					1
				],
				"metallicFactor":0.8327272534370422,
				"roughnessFactor":0.44545453786849976
			}
		}
	],
	"meshes":[
		{
			"name":"frc12_4900_000_cfd",
			"primitives":[
				{
					"attributes":{
						"POSITION":0,
						"NORMAL":1,
						"TEXCOORD_0":2
					},
					"indices":3,
					"material":0
				},
				{
					"attributes":{
						"POSITION":4,
						"NORMAL":5,
						"TEXCOORD_0":6
					},
					"indices":7,
					"material":1
				},
				{
					"attributes":{
						"POSITION":8,
						"NORMAL":9,
						"TEXCOORD_0":10
					},
					"indices":11,
					"material":2
				},
				{
					"attributes":{
						"POSITION":12,
						"NORMAL":13,
						"TEXCOORD_0":14
					},
					"indices":15,
					"material":3
				},
				{
					"attributes":{
						"POSITION":16,
						"NORMAL":17,
						"TEXCOORD_0":18
					},
					"indices":19,
					"material":4
				},
				{
					"attributes":{
						"POSITION":20,
						"NORMAL":21,
						"TEXCOORD_0":22
					},
					"indices":23,
					"material":5
				},
				{
					"attributes":{
						"POSITION":24,
						"NORMAL":25,
						"TEXCOORD_0":26
					},
					"indices":27,
					"material":6
				}
			]
		}
	],
	"textures":[
		{
			"sampler":0,
			"source":0
		},
		{
			"sampler":0,
			"source":1
		},
		{
			"sampler":0,
			"source":2
		},
		{
			"sampler":0,
			"source":3
		},
		{
			"sampler":0,
			"source":4
		},
		{
			"sampler":0,
			"source":5
		}
	],
	"images":[
		{
			"mimeType":"image/png",
			"name":"carbon-fiber_normal-ogl",
			"uri":"carbon-fiber_normal-ogl.png"
		},
		{
			"mimeType":"image/png",
			"name":"carbon-fiber_albedo",
			"uri":"carbon-fiber_albedo.png"
		},
		{
			"mimeType":"image/png",
			"name":"carbon-fiber_metallic-carbon-fiber_roughness",
			"uri":"carbon-fiber_metallic-carbon-fiber_roughness.png"
		},
		{
			"mimeType":"image/png",
			"name":"synth-rubber-normal",
			"uri":"synth-rubber-normal.png"
		},
		{
			"mimeType":"image/png",
			"name":"synth-rubber-albedo",
			"uri":"synth-rubber-albedo.png"
		},
		{
			"mimeType":"image/png",
			"name":"synth-rubber-metalness-synth-rubber-roughness",
			"uri":"synth-rubber-metalness-synth-rubber-roughness.png"
		}
	],
	"accessors":[
		{
			"bufferView":0,
			"componentType":5126,
			"count":547139,
			"max":[
				1935.09375,
				740,
				0.7400000095367432
			],
			"min":[
				-969.9984130859375,
				-740,
				-1200
			],
			"type":"VEC3"
		},
		{
			"bufferView":1,
			"componentType":5126,
			"count":547139,
			"type":"VEC3"
		},
		{
			"bufferView":2,
			"componentType":5126,
			"count":547139,
			"type":"VEC2"
		},
		{
			"bufferView":3,
			"componentType":5125,
			"count":586086,
			"type":"SCALAR"
		},
		{
			"bufferView":4,
			"componentType":5126,
			"count":46189,
			"max":[
				1755.739990234375,
				722.2844848632812,
				0.7400000095367432
			],
			"min":[
				-205.74000549316406,
				-722.2844848632812,
				-545.4073486328125
			],
			"type":"VEC3"
		},
		{
			"bufferView":5,
			"componentType":5126,
			"count":46189,
			"type":"VEC3"
		},
		{
			"bufferView":6,
			"componentType":5126,
			"count":46189,
			"type":"VEC2"
		},
		{
			"bufferView":7,
			"componentType":5123,
			"count":52785,
			"type":"SCALAR"
		},
		{
			"bufferView":8,
			"componentType":5126,
			"count":16015,
			"max":[
				278.8527526855469,
				224.40289306640625,
				-290.8041076660156
			],
			"min":[
				-952.6305541992188,
				-225.4084014892578,
				-562.41064453125
			],
			"type":"VEC3"
		},
		{
			"bufferView":9,
			"componentType":5126,
			"count":16015,
			"type":"VEC3"
		},
		{
			"bufferView":10,
			"componentType":5126,
			"count":16015,
			"type":"VEC2"
		},
		{
			"bufferView":11,
			"componentType":5123,
			"count":16182,
			"type":"SCALAR"
		},
		{
			"bufferView":12,
			"componentType":5126,
			"count":800,
			"max":[
				1674.0263671875,
				706.0535888671875,
				-80.42780303955078
			],
			"min":[
				-943.845703125,
				-706.0535888671875,
				-411.8282775878906
			],
			"type":"VEC3"
		},
		{
			"bufferView":13,
			"componentType":5126,
			"count":800,
			"type":"VEC3"
		},
		{
			"bufferView":14,
			"componentType":5126,
			"count":800,
			"type":"VEC2"
		},
		{
			"bufferView":15,
			"componentType":5123,
			"count":1965,
			"type":"SCALAR"
		},
		{
			"bufferView":16,
			"componentType":5126,
			"count":1242,
			"max":[
				442.5512390136719,
				720.0172729492188,
				-68.50572967529297
			],
			"min":[
				-138.30677795410156,
				-720.9450073242188,
				-411.89605712890625
			],
			"type":"VEC3"
		},
		{
			"bufferView":17,
			"componentType":5126,
			"count":1242,
			"type":"VEC3"
		},
		{
			"bufferView":18,
			"componentType":5126,
			"count":1242,
			"type":"VEC2"
		},
		{
			"bufferView":19,
			"componentType":5123,
			"count":1290,
			"type":"SCALAR"
		},
		{
			"bufferView":20,
			"componentType":5126,
			"count":652,
			"max":[
				-260,
				128.89524841308594,
				-314.8367614746094
			],
			"min":[
				-915.286865234375,
				-127.43619537353516,
				-564.484130859375
			],
			"type":"VEC3"
		},
		{
			"bufferView":21,
			"componentType":5126,
			"count":652,
			"type":"VEC3"
		},
		{
			"bufferView":22,
			"componentType":5126,
			"count":652,
			"type":"VEC2"
		},
		{
			"bufferView":23,
			"componentType":5123,
			"count":654,
			"type":"SCALAR"
		},
		{
			"bufferView":24,
			"componentType":5126,
			"count":2498,
			"max":[
				1935.09375,
				453,
				-334.3782958984375
			],
			"min":[
				-880.5,
				-454.412109375,
				-1200
			],
			"type":"VEC3"
		},
		{
			"bufferView":25,
			"componentType":5126,
			"count":2498,
			"type":"VEC3"
		},
		{
			"bufferView":26,
			"componentType":5126,
			"count":2498,
			"type":"VEC2"
		},
		{
			"bufferView":27,
			"componentType":5123,
			"count":3600,
			"type":"SCALAR"
		}
	],
	"bufferViews":[
		{
			"buffer":0,
			"byteLength":6565668,
			"byteOffset":0,
			"target":34962
		},
		{
			"buffer":0,
			"byteLength":6565668,
			"byteOffset":6565668,
			"target":34962
		},
		{
			"buffer":0,
			"byteLength":4377112,
			"byteOffset":13131336,
			"target":34962
		},
		{
			"buffer":0,
			"byteLength":2344344,
			"byteOffset":17508448,
			"target":34963
		},
		{
			"buffer":0,
			"byteLength":554268,
			"byteOffset":19852792,
			"target":34962
		},
		{
			"buffer":0,
			"byteLength":554268,
			"byteOffset":20407060,
			"target":34962
		},
		{
			"buffer":0,
			"byteLength":369512,
			"byteOffset":20961328,
			"target":34962
		},
		{
			"buffer":0,
			"byteLength":105570,
			"byteOffset":21330840,
			"target":34963
		},
		{
			"buffer":0,
			"byteLength":192180,
			"byteOffset":21436412,
			"target":34962
		},
		{
			"buffer":0,
			"byteLength":192180,
			"byteOffset":21628592,
			"target":34962
		},
		{
			"buffer":0,
			"byteLength":128120,
			"byteOffset":21820772,
			"target":34962
		},
		{
			"buffer":0,
			"byteLength":32364,
			"byteOffset":21948892,
			"target":34963
		},
		{
			"buffer":0,
			"byteLength":9600,
			"byteOffset":21981256,
			"target":34962
		},
		{
			"buffer":0,
			"byteLength":9600,
			"byteOffset":21990856,
			"target":34962
		},
		{
			"buffer":0,
			"byteLength":6400,
			"byteOffset":22000456,
			"target":34962
		},
		{
			"buffer":0,
			"byteLength":3930,
			"byteOffset":22006856,
			"target":34963
		},
		{
			"buffer":0,
			"byteLength":14904,
			"byteOffset":22010788,
			"target":34962
		},
		{
			"buffer":0,
			"byteLength":14904,
			"byteOffset":22025692,
			"target":34962
		},
		{
			"buffer":0,
			"byteLength":9936,
			"byteOffset":22040596,
			"target":34962
		},
		{
			"buffer":0,
			"byteLength":2580,
			"byteOffset":22050532,
			"target":34963
		},
		{
			"buffer":0,
			"byteLength":7824,
			"byteOffset":22053112,
			"target":34962
		},
		{
			"buffer":0,
			"byteLength":7824,
			"byteOffset":22060936,
			"target":34962
		},
		{
			"buffer":0,
			"byteLength":5216,
			"byteOffset":22068760,
			"target":34962
		},
		{
			"buffer":0,
			"byteLength":1308,
			"byteOffset":22073976,
			"target":34963
		},
		{
			"buffer":0,
			"byteLength":29976,
			"byteOffset":22075284,
			"target":34962
		},
		{
			"buffer":0,
			"byteLength":29976,
			"byteOffset":22105260,
			"target":34962
		},
		{
			"buffer":0,
			"byteLength":19984,
			"byteOffset":22135236,
			"target":34962
		},
		{
			"buffer":0,
			"byteLength":7200,
			"byteOffset":22155220,
			"target":34963
		}
	],
	"samplers":[
		{
			"magFilter":9729,
			"minFilter":9987
		}
	],
	"buffers":[
		{
			"byteLength":22162420,
			"uri":"car_reduced_started_blue_paint.bin"
		}
	]
}
