{
	"asset":{
		"generator":"Khronos glTF Blender I/O v4.3.47",
		"version":"2.0"
	},
	"extensionsUsed":[
		"KHR_texture_transform"
	],
	"extensionsRequired":[
		"KHR_texture_transform"
	],
	"scene":0,
	"scenes":[
		{
			"name":"Scene",
			"nodes":[
				0
			]
		}
	],
	"nodes":[
		{
			"mesh":0,
			"name":"Cylinder"
		}
	],
	"materials":[
		{
			"doubleSided":true,
			"name":"Podium_asphalt",
			"normalTexture":{
				"index":0
			},
			"pbrMetallicRoughness":{
				"baseColorTexture":{
					"index":1
				},
				"metallicFactor":0,
				"metallicRoughnessTexture":{
					"index":2
				}
			}
		},
		{
			"doubleSided":true,
			"name":"podium_side",
			"normalTexture":{
				"extensions":{
					"KHR_texture_transform":{
						"offset":[
							0,
							-19
						],
						"scale":[
							20,
							20
						]
					}
				},
				"index":3
			},
			"pbrMetallicRoughness":{
				"baseColorTexture":{
					"extensions":{
						"KHR_texture_transform":{
							"offset":[
								0,
								-19
							],
							"scale":[
								20,
								20
							]
						}
					},
					"index":4
				},
				"metallicRoughnessTexture":{
					"extensions":{
						"KHR_texture_transform":{
							"offset":[
								0,
								-19
							],
							"scale":[
								20,
								20
							]
						}
					},
					"index":5
				}
			}
		}
	],
	"meshes":[
		{
			"name":"Cylinder",
			"primitives":[
				{
					"attributes":{
						"POSITION":0,
						"NORMAL":1,
						"TEXCOORD_0":2
					},
					"indices":3,
					"material":0
				},
				{
					"attributes":{
						"POSITION":4,
						"NORMAL":5,
						"TEXCOORD_0":6
					},
					"indices":7,
					"material":1
				}
			]
		}
	],
	"textures":[
		{
			"sampler":0,
			"source":0
		},
		{
			"sampler":0,
			"source":1
		},
		{
			"sampler":0,
			"source":2
		},
		{
			"sampler":0,
			"source":3
		},
		{
			"sampler":0,
			"source":4
		},
		{
			"sampler":0,
			"source":5
		}
	],
	"images":[
		{
			"mimeType":"image/png",
			"name":"Asphalt026C_2K-PNG_NormalGL",
			"uri":"Asphalt026C_2K-PNG_NormalGL.png"
		},
		{
			"mimeType":"image/png",
			"name":"Asphalt026C_2K-PNG_Color",
			"uri":"Asphalt026C_2K-PNG_Color.png"
		},
		{
			"mimeType":"image/png",
			"name":"Asphalt026C_2K-PNG_Roughness",
			"uri":"Asphalt026C_2K-PNG_Roughness.png"
		},
		{
			"mimeType":"image/png",
			"name":"Metal012_2K-PNG_NormalGL",
			"uri":"Metal012_2K-PNG_NormalGL.png"
		},
		{
			"mimeType":"image/png",
			"name":"Metal012_2K-PNG_Color",
			"uri":"Metal012_2K-PNG_Color.png"
		},
		{
			"mimeType":"image/png",
			"name":"Metal012_2K-PNG_Metalness-Metal012_2K-PNG_Roughness",
			"uri":"Metal012_2K-PNG_Metalness-Metal012_2K-PNG_Roughness.png"
		}
	],
	"accessors":[
		{
			"bufferView":0,
			"componentType":5126,
			"count":256,
			"max":[
				10,
				0.25,
				10
			],
			"min":[
				-10,
				-0.25,
				-10
			],
			"type":"VEC3"
		},
		{
			"bufferView":1,
			"componentType":5126,
			"count":256,
			"type":"VEC3"
		},
		{
			"bufferView":2,
			"componentType":5126,
			"count":256,
			"type":"VEC2"
		},
		{
			"bufferView":3,
			"componentType":5123,
			"count":756,
			"type":"SCALAR"
		},
		{
			"bufferView":4,
			"componentType":5126,
			"count":512,
			"max":[
				10,
				0.25,
				10
			],
			"min":[
				-10,
				-0.25,
				-10
			],
			"type":"VEC3"
		},
		{
			"bufferView":5,
			"componentType":5126,
			"count":512,
			"type":"VEC3"
		},
		{
			"bufferView":6,
			"componentType":5126,
			"count":512,
			"type":"VEC2"
		},
		{
			"bufferView":7,
			"componentType":5123,
			"count":768,
			"type":"SCALAR"
		}
	],
	"bufferViews":[
		{
			"buffer":0,
			"byteLength":3072,
			"byteOffset":0,
			"target":34962
		},
		{
			"buffer":0,
			"byteLength":3072,
			"byteOffset":3072,
			"target":34962
		},
		{
			"buffer":0,
			"byteLength":2048,
			"byteOffset":6144,
			"target":34962
		},
		{
			"buffer":0,
			"byteLength":1512,
			"byteOffset":8192,
			"target":34963
		},
		{
			"buffer":0,
			"byteLength":6144,
			"byteOffset":9704,
			"target":34962
		},
		{
			"buffer":0,
			"byteLength":6144,
			"byteOffset":15848,
			"target":34962
		},
		{
			"buffer":0,
			"byteLength":4096,
			"byteOffset":21992,
			"target":34962
		},
		{
			"buffer":0,
			"byteLength":1536,
			"byteOffset":26088,
			"target":34963
		}
	],
	"samplers":[
		{
			"magFilter":9729,
			"minFilter":9987
		}
	],
	"buffers":[
		{
			"byteLength":27624,
			"uri":"Podium.bin"
		}
	]
}
